<?xml version="1.0" encoding="UTF-8"?>
<!DOCTYPE svg PUBLIC "-//W3C//DTD SVG 1.1//EN" "http://www.w3.org/Graphics/SVG/1.1/DTD/svg11.dtd">
<!-- Creator: CorelDRAW -->
<svg xmlns="http://www.w3.org/2000/svg" xml:space="preserve" width="1.88506in" height="0.345953in" version="1.1" style="shape-rendering:geometricPrecision; text-rendering:geometricPrecision; image-rendering:optimizeQuality; fill-rule:evenodd; clip-rule:evenodd"
viewBox="0 0 479.96 88.09"
 xmlns:xlink="http://www.w3.org/1999/xlink"
 xmlns:xodm="http://www.corel.com/coreldraw/odm/2003">
 <defs>
  <style type="text/css">
   <![CDATA[
    .str0 {stroke:#373435;stroke-width:2;stroke-miterlimit:2.61313}
    .fil1 {fill:#373435}
    .fil0 {fill:#ADD144}
    .fil3 {fill:#FEFEFE;fill-rule:nonzero}
    .fil2 {fill:#ADD144;fill-rule:nonzero}
   ]]>
  </style>
 </defs>
 <g id="Layer_x0020_1">
  <metadata id="CorelCorpID_0Corel-Layer"/>
  <g id="_2073195622864">
   <path class="fil0 str0" d="M19.88 1l440.21 0c10.38,0 18.88,8.49 18.88,18.88l0 48.33c0,10.38 -8.49,18.88 -18.88,18.88l-440.21 0c-10.38,0 -18.88,-8.49 -18.88,-18.88l0 -48.33c0,-10.38 8.49,-18.88 18.88,-18.88z"/>
   <path class="fil1" d="M22.56 5.78l434.84 0c9.23,0 16.78,7.55 16.78,16.78l0 42.96c0,9.23 -7.55,16.78 -16.78,16.78l-434.84 0c-9.23,0 -16.78,-7.55 -16.78,-16.78l0 -42.96c0,-9.23 7.55,-16.78 16.78,-16.78z"/>
   <path class="fil2" d="M18.34 34.42l11.09 0 2.85 -14.65 6.86 0 -2.87 14.65 12.63 0 2.83 -14.65 6.81 0 -2.83 14.65 5.99 0 0 7.29 -7.4 0 -2.22 11.52 9.62 0 0 7.21 -11 0 -2.82 14.57 -6.81 0 2.81 -14.57 -12.69 0 -2.85 14.57 -6.85 0 2.84 -14.57 -5.99 0 0 -7.21 7.4 0 2.25 -11.52 -9.65 0 0 -7.29zm16.51 7.29l-2.25 11.52 12.68 0 2.22 -11.52 -12.64 0z"/>
   <path class="fil3" d="M101.36 40.06l-15.14 0 0 -10.76c0,-3.13 -0.16,-5.08 -0.48,-5.86 -0.32,-0.77 -1.03,-1.16 -2.12,-1.16 -1.22,0 -2.01,0.47 -2.34,1.41 -0.33,0.95 -0.5,2.99 -0.5,6.12l0 28.75c0,3.02 0.17,4.97 0.5,5.9 0.33,0.91 1.08,1.37 2.23,1.37 1.11,0 1.85,-0.46 2.19,-1.38 0.34,-0.92 0.51,-3.08 0.51,-6.49l0 -7.79 15.14 0 0 2.42c0,6.42 -0.43,10.98 -1.27,13.66 -0.85,2.69 -2.73,5.04 -5.64,7.06 -2.92,2.02 -6.49,3.03 -10.76,3.03 -4.42,0 -8.07,-0.85 -10.95,-2.56 -2.87,-1.71 -4.78,-4.07 -5.71,-7.1 -0.93,-3.03 -1.4,-7.57 -1.4,-13.64l0 -18.1c0,-4.46 0.15,-7.81 0.43,-10.04 0.29,-2.23 1.14,-4.39 2.57,-6.45 1.42,-2.06 3.39,-3.69 5.92,-4.88 2.52,-1.19 5.43,-1.78 8.71,-1.78 4.45,0 8.12,0.91 11.03,2.75 2.89,1.83 4.79,4.11 5.71,6.85 0.91,2.74 1.36,7 1.36,12.78l0 5.89z"/>
   <path class="fil3" d="M119.27 43.9l-13.6 0 0 -3.41c0,-3.93 0.43,-6.96 1.27,-9.1 0.85,-2.13 2.56,-4.01 5.12,-5.64 2.56,-1.63 5.88,-2.45 9.98,-2.45 4.9,0 8.6,0.93 11.09,2.78 2.49,1.84 3.98,4.11 4.48,6.8 0.5,2.69 0.76,8.24 0.76,16.63l0 25.49 -14.11 0 0 -4.53c-0.88,1.83 -2.03,3.19 -3.43,4.1 -1.4,0.92 -3.06,1.37 -5.01,1.37 -2.54,0 -4.86,-0.76 -6.98,-2.27 -2.12,-1.53 -3.17,-4.84 -3.17,-9.98l0 -4.18c0,-3.8 0.56,-6.38 1.69,-7.77 1.13,-1.38 3.92,-2.99 8.38,-4.82 4.76,-2 7.31,-3.33 7.66,-4.02 0.33,-0.69 0.5,-2.09 0.5,-4.22 0,-2.65 -0.18,-4.37 -0.56,-5.18 -0.37,-0.8 -0.99,-1.2 -1.86,-1.2 -0.99,0 -1.6,0.34 -1.84,1.02 -0.24,0.67 -0.37,2.43 -0.37,5.26l0 5.31zm4.63 6.96c-2.34,1.81 -3.7,3.33 -4.07,4.56 -0.38,1.23 -0.56,2.98 -0.56,5.27 0,2.64 0.16,4.32 0.49,5.09 0.32,0.77 0.97,1.15 1.94,1.15 0.92,0 1.51,-0.3 1.79,-0.9 0.28,-0.6 0.42,-2.17 0.42,-4.73l0 -10.45z"/>
   <path class="fil3" d="M158.58 17.5l0 7.99 4.04 0 0 8.07 -4.04 0 0 27.14c0,3.33 0.17,5.2 0.5,5.58 0.33,0.38 1.7,0.57 4.13,0.57l0 8.15 -5.87 0c-3.31,0 -5.67,-0.14 -7.09,-0.44 -1.41,-0.29 -2.66,-0.97 -3.74,-2.02 -1.08,-1.06 -1.75,-2.26 -2.02,-3.63 -0.26,-1.36 -0.39,-4.56 -0.39,-9.6l0 -25.75 -3.09 0 0 -8.07 3.09 0 0 -7.99 14.48 0z"/>
   <path class="fil3" d="M197.88 43.43l-13.67 0 0 -5.88c0,-2.04 -0.16,-3.42 -0.48,-4.15 -0.32,-0.73 -0.91,-1.1 -1.76,-1.1 -0.86,0 -1.43,0.31 -1.73,0.95 -0.29,0.64 -0.44,2.06 -0.44,4.28l0 23.96c0,1.82 0.22,3.17 0.66,4.07 0.43,0.9 1.08,1.36 1.94,1.36 0.99,0 1.67,-0.47 2.02,-1.41 0.35,-0.94 0.53,-2.72 0.53,-5.34l0 -6.02 12.94 0c-0.02,4.05 -0.16,7.09 -0.42,9.11 -0.24,2.02 -1.05,4.1 -2.41,6.23 -1.35,2.13 -3.12,3.73 -5.31,4.82 -2.18,1.08 -4.87,1.62 -8.1,1.62 -4.09,0 -7.35,-0.74 -9.75,-2.25 -2.39,-1.49 -4.09,-3.58 -5.08,-6.27 -0.99,-2.7 -1.49,-6.52 -1.49,-11.48l0 -14.43c0,-4.32 0.4,-7.57 1.22,-9.77 0.81,-2.19 2.55,-4.15 5.22,-5.88 2.66,-1.72 5.89,-2.59 9.72,-2.59 3.79,0 7.02,0.86 9.71,2.57 2.68,1.71 4.47,3.86 5.35,6.48 0.89,2.61 1.33,6.31 1.33,11.08z"/>
   <path class="fil3" d="M216.6 13.03l0 13.96c1.25,-1.23 2.6,-2.16 4.04,-2.77 1.45,-0.61 3,-0.93 4.66,-0.93 2.54,0 4.69,0.69 6.48,2.06 1.78,1.38 2.87,2.96 3.27,4.77 0.39,1.8 0.59,5.09 0.59,9.86l0 35.02 -14.48 0 0 -35.73c0,-2.95 -0.13,-4.86 -0.42,-5.69 -0.28,-0.85 -0.89,-1.27 -1.86,-1.27 -0.89,0 -1.49,0.43 -1.81,1.31 -0.31,0.86 -0.47,2.59 -0.47,5.16l0 36.23 -14.48 0 0 -61.96 14.48 0z"/>
   <path class="fil3" d="M276.36 40.06l-15.14 0 0 -10.76c0,-3.13 -0.16,-5.08 -0.48,-5.86 -0.32,-0.77 -1.03,-1.16 -2.12,-1.16 -1.22,0 -2.01,0.47 -2.34,1.41 -0.33,0.95 -0.5,2.99 -0.5,6.12l0 28.75c0,3.02 0.17,4.97 0.5,5.9 0.33,0.91 1.08,1.37 2.23,1.37 1.11,0 1.85,-0.46 2.19,-1.38 0.34,-0.92 0.51,-3.08 0.51,-6.49l0 -7.79 15.14 0 0 2.42c0,6.42 -0.43,10.98 -1.28,13.66 -0.85,2.69 -2.73,5.04 -5.64,7.06 -2.92,2.02 -6.49,3.03 -10.76,3.03 -4.42,0 -8.07,-0.85 -10.95,-2.56 -2.87,-1.71 -4.78,-4.07 -5.71,-7.1 -0.93,-3.03 -1.4,-7.57 -1.4,-13.64l0 -18.1c0,-4.46 0.15,-7.81 0.43,-10.04 0.29,-2.23 1.14,-4.39 2.57,-6.45 1.42,-2.06 3.39,-3.69 5.92,-4.88 2.52,-1.19 5.43,-1.78 8.71,-1.78 4.45,0 8.12,0.91 11.03,2.75 2.89,1.83 4.79,4.11 5.71,6.85 0.91,2.74 1.36,7 1.36,12.78l0 5.89z"/>
   <polygon class="fil3" points="296.26,13.03 296.26,75 281.33,75 281.33,13.03 "/>
   <path class="fil3" d="M316.4 13.03l0 8.07 -14.92 0 0 -8.07 14.92 0zm0 11.2l0 50.76 -14.92 0 0 -50.76 14.92 0z"/>
   <path class="fil3" d="M353.74 43.43l-13.67 0 0 -5.88c0,-2.04 -0.16,-3.42 -0.48,-4.15 -0.32,-0.73 -0.91,-1.1 -1.77,-1.1 -0.86,0 -1.43,0.31 -1.73,0.95 -0.3,0.64 -0.44,2.06 -0.44,4.28l0 23.96c0,1.82 0.22,3.17 0.66,4.07 0.43,0.9 1.08,1.36 1.94,1.36 0.99,0 1.67,-0.47 2.02,-1.41 0.36,-0.94 0.53,-2.72 0.53,-5.34l0 -6.02 12.94 0c-0.02,4.05 -0.16,7.09 -0.42,9.11 -0.24,2.02 -1.05,4.1 -2.41,6.23 -1.35,2.13 -3.12,3.73 -5.3,4.82 -2.18,1.08 -4.87,1.62 -8.1,1.62 -4.09,0 -7.35,-0.74 -9.75,-2.25 -2.39,-1.49 -4.09,-3.58 -5.08,-6.27 -0.99,-2.7 -1.49,-6.52 -1.49,-11.48l0 -14.43c0,-4.32 0.4,-7.57 1.22,-9.77 0.81,-2.19 2.55,-4.15 5.22,-5.88 2.66,-1.72 5.89,-2.59 9.71,-2.59 3.79,0 7.02,0.86 9.72,2.57 2.68,1.71 4.47,3.86 5.35,6.48 0.89,2.61 1.34,6.31 1.34,11.08z"/>
   <polygon class="fil3" points="389.21,24.23 383.33,44.48 390.9,75 377.05,75 372.49,52.89 372.45,75 357.97,75 357.97,13.03 372.45,13.03 372.49,39.09 377.05,24.23 "/>
   <path class="fil3" d="M425.97 50.48l-18.82 0 0 11.01c0,2.3 0.16,3.79 0.47,4.45 0.32,0.67 0.92,0.99 1.81,0.99 1.11,0 1.86,-0.44 2.23,-1.32 0.38,-0.89 0.56,-2.6 0.56,-5.13l0 -6.71 13.74 0 0 3.76c0,3.15 -0.18,5.56 -0.55,7.25 -0.38,1.69 -1.25,3.49 -2.61,5.41 -1.36,1.92 -3.1,3.36 -5.19,4.32 -2.1,0.95 -4.72,1.44 -7.88,1.44 -3.06,0 -5.77,-0.47 -8.12,-1.42 -2.34,-0.94 -4.17,-2.23 -5.48,-3.88 -1.31,-1.64 -2.2,-3.46 -2.71,-5.45 -0.5,-1.97 -0.76,-4.84 -0.76,-8.63l0 -14.82c0,-4.44 0.56,-7.94 1.69,-10.51 1.13,-2.56 2.96,-4.53 5.52,-5.89 2.57,-1.37 5.51,-2.05 8.85,-2.05 4.07,0 7.42,0.82 10.07,2.47 2.65,1.64 4.51,3.82 5.57,6.54 1.07,2.7 1.59,6.53 1.59,11.45l0 6.73zm-14.48 -8.23l0 -3.71c0,-2.64 -0.14,-4.32 -0.4,-5.09 -0.27,-0.77 -0.82,-1.15 -1.65,-1.15 -1.03,0 -1.67,0.33 -1.91,0.98 -0.25,0.65 -0.37,2.4 -0.37,5.26l0 3.71 4.34 0z"/>
   <path class="fil3" d="M445.09 24.23l-0.52 6.69c2.12,-4.8 5.18,-7.34 9.19,-7.62l0 17.86c-2.66,0 -4.62,0.38 -5.87,1.15 -1.25,0.77 -2.01,1.83 -2.3,3.2 -0.28,1.36 -0.43,4.5 -0.43,9.44l0 20.05 -14.48 0 0 -50.76 14.41 0z"/>
  </g>
 </g>
</svg>
